<?xml version="1.0" encoding="UTF-8"?>
<svg width="20px" height="14px" viewBox="0 0 20 14" version="1.1" xmlns="http://www.w3.org/2000/svg" xmlns:xlink="http://www.w3.org/1999/xlink">
    <title>Icon/password off</title>
    <g id="Symbols" stroke="none" stroke-width="1" fill="none" fill-rule="evenodd">
        <g id="Form/Enrolment/01-Account-Info" transform="translate(-291.000000, -780.000000)">
            <g id="Group-4" transform="translate(32.000000, 563.000000)">
                <g id="Group-38-Copy" transform="translate(0.000000, 200.000000)">
                    <g id="visibility-24px" transform="translate(259.000000, 14.000000)">
                        <polygon id="Path" points="0 0 20 0 20 20 0 20"></polygon>
                        <path d="M10,3.75 C5.83333333,3.75 2.275,6.34166667 0.833333333,10 C2.275,13.6583333 5.83333333,16.25 10,16.25 C14.1666667,16.25 17.725,13.6583333 19.1666667,10 C17.725,6.34166667 14.1666667,3.75 10,3.75 Z M10,14.1666667 C7.7,14.1666667 5.83333333,12.3 5.83333333,10 C5.83333333,7.7 7.7,5.83333333 10,5.83333333 C12.3,5.83333333 14.1666667,7.7 14.1666667,10 C14.1666667,12.3 12.3,14.1666667 10,14.1666667 Z M10,7.5 C8.61666667,7.5 7.5,8.61666667 7.5,10 C7.5,11.3833333 8.61666667,12.5 10,12.5 C11.3833333,12.5 12.5,11.3833333 12.5,10 C12.5,8.61666667 11.3833333,7.5 10,7.5 Z" id="Shape" fill="#635D60" fill-rule="nonzero"></path>
                    </g>
                </g>
            </g>
        </g>
    </g>
</svg>